<svg id="Layer_1" data-name="Layer 1" xmlns="http://www.w3.org/2000/svg" viewBox="0 0 128 128"><title>WORLD</title><path d="M113.66,23.69q-.345-.435-.72-.87A63.786,63.786,0,0,0,64.92.02C64.61.01,64.31,0,64,0s-.61.01-.92.02A63.789,63.789,0,0,0,14.93,22.98a6.164,6.164,0,0,0-.47.57.138.138,0,0,1-.03.04,63.8,63.8,0,0,0,0,80.82.138.138,0,0,1,.03.04,6.171,6.171,0,0,0,.47.57l.01.01a63.776,63.776,0,0,0,48.14,22.95c.614.02,1.226.02,1.84,0a63.786,63.786,0,0,0,48.02-22.8q.375-.435.72-.87a63.826,63.826,0,0,0,0-80.62ZM99.49,62.25a106.208,106.208,0,0,0-4.07-28.03,69.57,69.57,0,0,0,16.19-7.51,60.158,60.158,0,0,1,12.86,35.54ZM65.75,3.59c10.69,1.1,19.99,12.14,25.36,28.3a100.612,100.612,0,0,1-25.36,3.58Zm-3.5,31.88a100.612,100.612,0,0,1-25.36-3.58c5.37-16.16,14.67-27.2,25.36-28.3Zm0,3.5V62.25H32.01a104.4,104.4,0,0,1,3.85-27.02A104.159,104.159,0,0,0,62.25,38.97Zm0,26.78V89.03a104.161,104.161,0,0,0-26.39,3.74,104.4,104.4,0,0,1-3.85-27.02Zm0,26.78v31.88c-10.69-1.1-19.99-12.14-25.36-28.3A100.612,100.612,0,0,1,62.25,92.53Zm3.5,0a100.612,100.612,0,0,1,25.36,3.58c-5.37,16.16-14.67,27.2-25.36,28.3Zm0-3.5V65.75H95.99a104.477,104.477,0,0,1-3.85,27.03A103.333,103.333,0,0,0,65.75,89.03Zm0-26.78V38.97a103.33,103.33,0,0,0,26.39-3.75,104.478,104.478,0,0,1,3.85,27.03Zm43.6-38.26A66.171,66.171,0,0,1,94.37,30.9C90.53,19.48,84.76,10.4,77.89,5.11A60.6,60.6,0,0,1,109.35,23.99ZM50.11,5.11C43.24,10.4,37.47,19.48,33.63,30.9A67.031,67.031,0,0,1,18.65,24,60.513,60.513,0,0,1,50.11,5.11ZM16.39,26.7a69.605,69.605,0,0,0,16.19,7.53,106.07,106.07,0,0,0-4.07,28.02H3.53A60.188,60.188,0,0,1,16.39,26.7ZM28.51,65.75a106.069,106.069,0,0,0,4.07,28.02v.01a69.183,69.183,0,0,0-16.19,7.52A60.188,60.188,0,0,1,3.53,65.75ZM18.65,104a67.031,67.031,0,0,1,14.98-6.9c3.84,11.42,9.61,20.5,16.48,25.79A60.514,60.514,0,0,1,18.65,104Zm59.24,18.89c6.87-5.29,12.64-14.37,16.48-25.79a66.169,66.169,0,0,1,14.98,6.91A60.6,60.6,0,0,1,77.89,122.89Zm33.72-21.6a69.573,69.573,0,0,0-16.19-7.51,106.208,106.208,0,0,0,4.07-28.03h24.98A60.158,60.158,0,0,1,111.61,101.29Z"/></svg>